<?xml version="1.0" encoding="UTF-8" standalone="no"?>
<svg
   xmlns:ooo="http://xml.openoffice.org/svg/export"
   xmlns:dc="http://purl.org/dc/elements/1.1/"
   xmlns:cc="http://creativecommons.org/ns#"
   xmlns:rdf="http://www.w3.org/1999/02/22-rdf-syntax-ns#"
   xmlns:svg="http://www.w3.org/2000/svg"
   xmlns="http://www.w3.org/2000/svg"
   xmlns:sodipodi="http://sodipodi.sourceforge.net/DTD/sodipodi-0.dtd"
   xmlns:inkscape="http://www.inkscape.org/namespaces/inkscape"
   version="1.2"
   width="602.77557"
   height="482.58661"
   viewBox="0 0 17011.666 13619.666"
   preserveAspectRatio="xMidYMid"
   clip-path="url(#presentation_clip_path)"
   xml:space="preserve"
   id="svg2"
   inkscape:version="0.48.4 r9939"
   sodipodi:docname="core-diagram-commutation.svg"
   style="fill-rule:evenodd;stroke-width:28.22200012;stroke-linejoin:round"><metadata
     id="metadata309"><rdf:RDF><cc:Work
         rdf:about=""><dc:format>image/svg+xml</dc:format><dc:type
           rdf:resource="http://purl.org/dc/dcmitype/StillImage" /></cc:Work></rdf:RDF></metadata><sodipodi:namedview
     pagecolor="#ffffff"
     bordercolor="#666666"
     borderopacity="1"
     objecttolerance="10"
     gridtolerance="10"
     guidetolerance="10"
     inkscape:pageopacity="0"
     inkscape:pageshadow="2"
     inkscape:window-width="1871"
     inkscape:window-height="1176"
     id="namedview307"
     showgrid="false"
     fit-margin-top="10"
     fit-margin-left="10"
     fit-margin-right="10"
     fit-margin-bottom="10"
     inkscape:zoom="0.84385899"
     inkscape:cx="557.76525"
     inkscape:cy="180.70031"
     inkscape:window-x="49"
     inkscape:window-y="24"
     inkscape:window-maximized="1"
     inkscape:current-layer="svg2" /><defs
     class="ClipPathGroup"
     id="defs4"><clipPath
       id="presentation_clip_path"
       clipPathUnits="userSpaceOnUse"><rect
         x="0"
         y="0"
         width="28000"
         height="21000"
         id="rect7" /></clipPath></defs><defs
     class="TextShapeIndex"
     id="defs9"><g
       ooo:slide="id1"
       ooo:id-list="id3 id4 id5 id6 id7 id8 id9 id10 id11 id12 id13 id14 id15 id16 id17 id18 id19 id20 id21"
       id="g11" /></defs><defs
     class="EmbeddedBulletChars"
     id="defs13"><g
       id="bullet-char-template(57356)"
       transform="scale(4.8828125e-4,-4.8828125e-4)"><path
         d="M 580,1141 1163,571 580,0 -4,571 580,1141 z"
         id="path16"
         inkscape:connector-curvature="0" /></g><g
       id="bullet-char-template(57354)"
       transform="scale(4.8828125e-4,-4.8828125e-4)"><path
         d="m 8,1128 1129,0 L 1137,0 8,0 8,1128 z"
         id="path19"
         inkscape:connector-curvature="0" /></g><g
       id="bullet-char-template(10146)"
       transform="scale(4.8828125e-4,-4.8828125e-4)"><path
         d="M 174,0 602,739 174,1481 1456,739 174,0 z m 1184,739 -1049,607 350,-607 699,0 z"
         id="path22"
         inkscape:connector-curvature="0" /></g><g
       id="bullet-char-template(10132)"
       transform="scale(4.8828125e-4,-4.8828125e-4)"><path
         d="M 2015,739 1276,0 717,0 l 543,543 -1086,0 0,393 1086,0 -543,545 557,0 741,-742 z"
         id="path25"
         inkscape:connector-curvature="0" /></g><g
       id="bullet-char-template(10007)"
       transform="scale(4.8828125e-4,-4.8828125e-4)"><path
         d="m 0,-2 c -7,16 -16,29 -25,39 l 381,530 c -94,256 -141,385 -141,387 0,25 13,38 40,38 9,0 21,-2 34,-5 21,4 42,12 65,25 l 27,-13 111,-251 280,301 64,-25 24,25 c 21,-10 41,-24 62,-43 C 886,937 835,863 770,784 769,783 710,716 594,584 L 774,223 c 0,-27 -21,-55 -63,-84 l 16,-20 C 717,90 699,76 672,76 641,76 570,178 457,381 L 164,-76 c -22,-34 -53,-51 -92,-51 -42,0 -63,17 -64,51 -7,9 -10,24 -10,44 0,9 1,19 2,30 z"
         id="path28"
         inkscape:connector-curvature="0" /></g><g
       id="bullet-char-template(10004)"
       transform="scale(4.8828125e-4,-4.8828125e-4)"><path
         d="M 285,-33 C 182,-33 111,30 74,156 52,228 41,333 41,471 c 0,78 14,145 41,201 34,71 87,106 158,106 53,0 88,-31 106,-94 l 23,-176 c 8,-64 28,-97 59,-98 l 735,706 c 11,11 33,17 66,17 42,0 63,-15 63,-46 l 0,-122 c 0,-36 -10,-64 -30,-84 L 442,47 C 390,-6 338,-33 285,-33 z"
         id="path31"
         inkscape:connector-curvature="0" /></g><g
       id="bullet-char-template(9679)"
       transform="scale(4.8828125e-4,-4.8828125e-4)"><path
         d="M 813,0 C 632,0 489,54 383,161 276,268 223,411 223,592 c 0,181 53,324 160,431 106,107 249,161 430,161 179,0 323,-54 432,-161 108,-107 162,-251 162,-431 0,-180 -54,-324 -162,-431 C 1136,54 992,0 813,0 z"
         id="path34"
         inkscape:connector-curvature="0" /></g><g
       id="bullet-char-template(8226)"
       transform="scale(4.8828125e-4,-4.8828125e-4)"><path
         d="m 346,457 c -73,0 -137,26 -191,78 -54,51 -81,114 -81,188 0,73 27,136 81,188 54,52 118,78 191,78 73,0 134,-26 185,-79 51,-51 77,-114 77,-187 0,-75 -25,-137 -76,-188 -50,-52 -112,-78 -186,-78 z"
         id="path37"
         inkscape:connector-curvature="0" /></g><g
       id="bullet-char-template(8211)"
       transform="scale(4.8828125e-4,-4.8828125e-4)"><path
         d="m -4,459 1139,0 0,147 -1139,0 0,-147 z"
         id="path40"
         inkscape:connector-curvature="0" /></g></defs><defs
     class="TextEmbeddedBitmaps"
     id="defs42" /><g
     id="g44"
     transform="translate(-6306.6668,-4074.6669)"><g
       id="id2"
       class="Master_Slide"><g
         id="bg-id2"
         class="Background" /><g
         id="bo-id2"
         class="BackgroundObjects" /></g></g><g
     class="SlideGroup"
     id="g49"
     transform="translate(-6306.6668,-4074.6669)"><g
       id="g51"><g
         id="id1"
         class="Slide"
         clip-path="url(#presentation_clip_path)"><g
           class="Page"
           id="g54"><g
             class="com.sun.star.drawing.CustomShape"
             id="g56"><title
               id="title58">XMOS Tile
      </title><desc
               id="desc60">Represents XMOS Tile
      </desc><g
               id="id3"><path
                 d="m 9842,17398 -3239,0 0,-13027 6477,0 0,13027 -3238,0 z"
                 id="path63"
                 inkscape:connector-curvature="0"
                 style="fill:#e6e6e6;stroke:none" /><path
                 d="m 9842,17398 -3239,0 0,-13027 6477,0 0,13027 -3238,0 z"
                 id="path65"
                 inkscape:connector-curvature="0"
                 style="fill:none;stroke:#000000;stroke-width:28.22200012" /></g></g><g
             class="com.sun.star.drawing.CustomShape"
             id="g67"><title
               id="title69">XMOS Tile
      </title><desc
               id="desc71">Represents XMOS Tile
      </desc><g
               id="id4"><path
                 d="m 16319,17398 -3239,0 0,-13027 6477,0 0,13027 -3238,0 z"
                 id="path74"
                 inkscape:connector-curvature="0"
                 style="fill:#729fcf;stroke:none" /><path
                 d="m 16319,17398 -3239,0 0,-13027 6477,0 0,13027 -3238,0 z"
                 id="path76"
                 inkscape:connector-curvature="0"
                 style="fill:none;stroke:#000000;stroke-width:28.22200012" /></g></g><g
             class="com.sun.star.drawing.CustomShape"
             id="g78"><g
               id="id5"><path
                 d="m 9842,9963 c 407,0 718,311 718,717 0,406 -311,717 -718,717 -407,0 -718,-311 -718,-717 0,-406 311,-717 718,-717 z m -718,0 0,0 z m 1437,1436 0,0 z"
                 id="path81"
                 inkscape:connector-curvature="0"
                 style="fill:#aecf00;stroke:none" /><path
                 d="m 9842,9963 c 407,0 718,311 718,717 0,406 -311,717 -718,717 -407,0 -718,-311 -718,-717 0,-406 311,-717 718,-717 z"
                 id="path83"
                 inkscape:connector-curvature="0"
                 style="fill:none;stroke:#000000;stroke-width:28.22200012" /><path
                 d="m 9124,9963 0,0 z"
                 id="path85"
                 inkscape:connector-curvature="0"
                 style="fill:none;stroke:#000000;stroke-width:28.22200012" /><path
                 d="m 10561,11399 0,0 z"
                 id="path87"
                 inkscape:connector-curvature="0"
                 style="fill:none;stroke:#000000;stroke-width:28.22200012" /><text
                 class="TextShape"
                 id="text89"><tspan
                   class="TextParagraph"
                   font-size="423px"
                   font-weight="700"
                   id="tspan91"
                   style="font-size:423px;font-weight:700;font-family:'Liberation Sans, sans-serif'"><tspan
                     class="TextPosition"
                     x="7336"
                     y="12022"
                     id="tspan93"><tspan
                       id="tspan95"
                       style="fill:#000000;stroke:none">Custom Controller Client</tspan></tspan><tspan
                     class="TextPosition"
                     x="7306"
                     y="12500"
                     id="tspan97"><tspan
                       font-weight="400"
                       id="tspan99"
                       style="font-weight:400;fill:#000000;stroke:none">(uses commutation_client.h)</tspan></tspan></tspan></text>
</g></g><g
             class="com.sun.star.drawing.ConnectorShape"
             id="g101"><g
               id="id6"><path
                 d="m 10560,10681 3391,0"
                 id="path104"
                 inkscape:connector-curvature="0"
                 style="fill:none;stroke:#000000;stroke-width:28.22200012" /><path
                 d="m 14381,10681 -450,-150 0,300 450,-150 z"
                 id="path106"
                 inkscape:connector-curvature="0"
                 style="fill:#000000;stroke:none" /></g></g><g
             class="com.sun.star.drawing.ConnectorShape"
             id="g108"><g
               id="id7"><path
                 d="m 15816,10681 576,0"
                 id="path111"
                 inkscape:connector-curvature="0"
                 style="fill:none;stroke:#000000;stroke-width:28.22200012" /><path
                 d="m 16822,10681 -450,-150 0,300 450,-150 z"
                 id="path113"
                 inkscape:connector-curvature="0"
                 style="fill:#000000;stroke:none" /></g></g><g
             class="com.sun.star.drawing.ConnectorShape"
             id="g115"><g
               id="id8"><path
                 d="M 17032,14126 15794,11576"
                 id="path118"
                 inkscape:connector-curvature="0"
                 style="fill:none;stroke:#000000;stroke-width:28.22200012" /><path
                 d="m 15606,11189 62,470 269,-131 -331,-339 z"
                 id="path120"
                 inkscape:connector-curvature="0"
                 style="fill:#000000;stroke:none" /></g></g><g
             class="Group"
             id="g122"><g
               class="com.sun.star.drawing.CustomShape"
               id="g124"><g
                 id="id9"><path
                   d="m 15097,9963 c 406,0 717,311 717,718 0,407 -311,718 -717,718 -406,0 -717,-311 -717,-718 0,-407 311,-718 717,-718 z m -717,0 0,0 z m 1436,1437 0,0 z"
                   id="path127"
                   inkscape:connector-curvature="0"
                   style="fill:#ff8080;stroke:none" /><path
                   d="m 15097,9963 c 406,0 717,311 717,718 0,407 -311,718 -717,718 -406,0 -717,-311 -717,-718 0,-407 311,-718 717,-718 z"
                   id="path129"
                   inkscape:connector-curvature="0"
                   style="fill:none;stroke:#000000;stroke-width:28.22200012" /><path
                   d="m 14380,9963 0,0 z"
                   id="path131"
                   inkscape:connector-curvature="0"
                   style="fill:none;stroke:#000000;stroke-width:28.22200012" /><path
                   d="m 15816,11400 0,0 z"
                   id="path133"
                   inkscape:connector-curvature="0"
                   style="fill:none;stroke:#000000;stroke-width:28.22200012" /><text
                   class="TextShape"
                   id="text135"><tspan
                     class="TextParagraph"
                     font-size="423px"
                     font-weight="700"
                     id="tspan137"
                     style="font-size:423px;font-weight:700;font-family:'Liberation Sans, sans-serif'"><tspan
                       class="TextPosition"
                       x="13734"
                       y="12022"
                       id="tspan139"><tspan
                         id="tspan141"
                         style="fill:#000000;stroke:none">Commutation</tspan></tspan></tspan><tspan
                     class="TextParagraph"
                     font-size="423px"
                     font-weight="700"
                     id="tspan143"
                     style="font-size:423px;font-weight:700;font-family:'Liberation Sans, sans-serif'"><tspan
                       class="TextPosition"
                       x="14435"
                       y="12500"
                       id="tspan145"><tspan
                         id="tspan147"
                         style="fill:#000000;stroke:none">Server</tspan></tspan></tspan></text>
</g></g><g
               class="com.sun.star.drawing.CustomShape"
               id="g149"><g
                 id="id10"><path
                   d="m 17540,9963 c 407,0 718,311 718,718 0,407 -311,718 -718,718 -407,0 -718,-311 -718,-718 0,-407 311,-718 718,-718 z m -718,0 0,0 z m 1437,1437 0,0 z"
                   id="path152"
                   inkscape:connector-curvature="0"
                   style="fill:#ff8080;stroke:none" /><path
                   d="m 17540,9963 c 407,0 718,311 718,718 0,407 -311,718 -718,718 -407,0 -718,-311 -718,-718 0,-407 311,-718 718,-718 z"
                   id="path154"
                   inkscape:connector-curvature="0"
                   style="fill:none;stroke:#000000;stroke-width:28.22200012" /><path
                   d="m 16822,9963 0,0 z"
                   id="path156"
                   inkscape:connector-curvature="0"
                   style="fill:none;stroke:#000000;stroke-width:28.22200012" /><path
                   d="m 18259,11400 0,0 z"
                   id="path158"
                   inkscape:connector-curvature="0"
                   style="fill:none;stroke:#000000;stroke-width:28.22200012" /><text
                   class="TextShape"
                   id="text160"><tspan
                     class="TextParagraph"
                     font-size="423px"
                     font-weight="700"
                     id="tspan162"
                     style="font-size:423px;font-weight:700;font-family:'Liberation Sans, sans-serif'"><tspan
                       class="TextPosition"
                       x="17024"
                       y="12022"
                       id="tspan164"><tspan
                         id="tspan166"
                         style="fill:#000000;stroke:none">PWM</tspan></tspan><tspan
                       class="TextPosition"
                       x="16782"
                       y="12500"
                       id="tspan168"><tspan
                         id="tspan170"
                         style="fill:#000000;stroke:none">Service</tspan></tspan></tspan></text>
</g></g><g
               class="com.sun.star.drawing.CustomShape"
               id="g172"><g
                 id="id11"><path
                   d="m 17540,13916 c 407,0 718,311 718,718 0,407 -311,718 -718,718 -407,0 -718,-311 -718,-718 0,-407 311,-718 718,-718 z m -718,0 0,0 z m 1437,1437 0,0 z"
                   id="path175"
                   inkscape:connector-curvature="0"
                   style="fill:#ff8080;stroke:none" /><path
                   d="m 17540,13916 c 407,0 718,311 718,718 0,407 -311,718 -718,718 -407,0 -718,-311 -718,-718 0,-407 311,-718 718,-718 z"
                   id="path177"
                   inkscape:connector-curvature="0"
                   style="fill:none;stroke:#000000;stroke-width:28.22200012" /><path
                   d="m 16822,13916 0,0 z"
                   id="path179"
                   inkscape:connector-curvature="0"
                   style="fill:none;stroke:#000000;stroke-width:28.22200012" /><path
                   d="m 18259,15353 0,0 z"
                   id="path181"
                   inkscape:connector-curvature="0"
                   style="fill:none;stroke:#000000;stroke-width:28.22200012" /><text
                   class="TextShape"
                   id="text183"><tspan
                     class="TextParagraph"
                     font-size="423px"
                     font-weight="700"
                     id="tspan185"
                     style="font-size:423px;font-weight:700;font-family:'Liberation Sans, sans-serif'"><tspan
                       class="TextPosition"
                       x="16977"
                       y="15975"
                       id="tspan187"><tspan
                         id="tspan189"
                         style="fill:#000000;stroke:none">HALL</tspan></tspan><tspan
                       class="TextPosition"
                       x="16877"
                       y="16453"
                       id="tspan191"><tspan
                         id="tspan193"
                         style="fill:#000000;stroke:none">Server</tspan></tspan></tspan></text>
</g></g><g
               class="com.sun.star.drawing.CustomShape"
               id="g195"><g
                 id="id12"><path
                   d="m 17539,5989 c 406,0 717,311 717,718 0,407 -311,718 -717,718 -406,0 -717,-311 -717,-718 0,-407 311,-718 717,-718 z m -717,0 0,0 z m 1436,1437 0,0 z"
                   id="path198"
                   inkscape:connector-curvature="0"
                   style="fill:#ff8080;stroke:none" /><path
                   d="m 17539,5989 c 406,0 717,311 717,718 0,407 -311,718 -717,718 -406,0 -717,-311 -717,-718 0,-407 311,-718 717,-718 z"
                   id="path200"
                   inkscape:connector-curvature="0"
                   style="fill:none;stroke:#000000;stroke-width:28.22200012" /><path
                   d="m 16822,5989 0,0 z"
                   id="path202"
                   inkscape:connector-curvature="0"
                   style="fill:none;stroke:#000000;stroke-width:28.22200012" /><path
                   d="m 18258,7426 0,0 z"
                   id="path204"
                   inkscape:connector-curvature="0"
                   style="fill:none;stroke:#000000;stroke-width:28.22200012" /><text
                   class="TextShape"
                   id="text206"><tspan
                     class="TextParagraph"
                     font-size="423px"
                     font-weight="700"
                     id="tspan208"
                     style="font-size:423px;font-weight:700;font-family:'Liberation Sans, sans-serif'"><tspan
                       class="TextPosition"
                       x="16525"
                       y="8007"
                       id="tspan210"><tspan
                         id="tspan212"
                         style="fill:#000000;stroke:none">Watchdog</tspan></tspan><tspan
                       class="TextPosition"
                       x="16877"
                       y="8485"
                       id="tspan214"><tspan
                         id="tspan216"
                         style="fill:#000000;stroke:none">Server</tspan></tspan></tspan></text>
</g></g></g><g
             class="com.sun.star.drawing.ConnectorShape"
             id="g218"><g
               id="id13"><path
                 d="M 17033,7215 15793,9786"
                 id="path221"
                 inkscape:connector-curvature="0"
                 style="fill:none;stroke:#000000;stroke-width:28.22200012" /><path
                 d="m 15606,10173 331,-340 -271,-130 -60,470 z"
                 id="path223"
                 inkscape:connector-curvature="0"
                 style="fill:#000000;stroke:none" /></g></g><g
             class="com.sun.star.drawing.CustomShape"
             id="g225"><g
               id="id14"><path
                 d="m 21568,7427 -1452,0 0,-1439 2904,0 0,1439 -1452,0 z"
                 id="path228"
                 inkscape:connector-curvature="0"
                 style="fill:#e6e6e6;stroke:none" /><path
                 d="m 21568,7427 -1452,0 0,-1439 2904,0 0,1439 -1452,0 z"
                 id="path230"
                 inkscape:connector-curvature="0"
                 style="fill:none;stroke:#000000;stroke-width:28.22200012" /><text
                 class="TextShape"
                 id="text232"><tspan
                   class="TextParagraph"
                   font-size="423px"
                   font-weight="400"
                   id="tspan234"
                   style="font-size:423px;font-weight:400;font-family:'Liberation Sans, sans-serif'"><tspan
                     class="TextPosition"
                     x="21088"
                     y="6854"
                     id="tspan236"><tspan
                       id="tspan238"
                       style="fill:#000000;stroke:none">WDT</tspan></tspan></tspan></text>
</g></g><g
             class="com.sun.star.drawing.TextShape"
             id="g240"><g
               id="id15"><text
                 class="TextShape"
                 id="text243"><tspan
                   class="TextParagraph"
                   font-size="494px"
                   font-weight="400"
                   id="tspan245"
                   style="font-size:494px;font-weight:400;font-family:'Liberation Sans, sans-serif'"><tspan
                     class="TextPosition"
                     x="8751"
                     y="5266"
                     id="tspan247"><tspan
                       id="tspan249"
                       style="fill:#000000;stroke:none">ANY TILE</tspan></tspan></tspan></text>
</g></g><g
             class="com.sun.star.drawing.TextShape"
             id="g251"><g
               id="id16"><text
                 class="TextShape"
                 id="text254"><tspan
                   class="TextParagraph"
                   font-size="494px"
                   font-weight="400"
                   id="tspan256"
                   style="font-size:494px;font-weight:400;font-family:'Liberation Sans, sans-serif'"><tspan
                     class="TextPosition"
                     x="15150"
                     y="5266"
                     id="tspan258"><tspan
                       id="tspan260"
                       style="fill:#000000;stroke:none">IFM TILE</tspan></tspan></tspan></text>
</g></g><g
             class="com.sun.star.drawing.CustomShape"
             id="g262"><g
               id="id17"><path
                 d="m 21569,11401 -1452,0 0,-1439 2904,0 0,1439 -1452,0 z"
                 id="path265"
                 inkscape:connector-curvature="0"
                 style="fill:#e6e6e6;stroke:none" /><path
                 d="m 21569,11401 -1452,0 0,-1439 2904,0 0,1439 -1452,0 z"
                 id="path267"
                 inkscape:connector-curvature="0"
                 style="fill:none;stroke:#000000;stroke-width:28.22200012" /><text
                 class="TextShape"
                 id="text269"><tspan
                   class="TextParagraph"
                   font-size="423px"
                   font-weight="400"
                   id="tspan271"
                   style="font-size:423px;font-weight:400;font-family:'Liberation Sans, sans-serif'"><tspan
                     class="TextPosition"
                     x="20551"
                     y="10828"
                     id="tspan273"><tspan
                       id="tspan275"
                       style="fill:#000000;stroke:none">FET Driver</tspan></tspan></tspan></text>
</g></g><g
             class="com.sun.star.drawing.CustomShape"
             id="g277"><g
               id="id18"><path
                 d="m 21570,15353 -1452,0 0,-1439 2904,0 0,1439 -1452,0 z"
                 id="path280"
                 inkscape:connector-curvature="0"
                 style="fill:#e6e6e6;stroke:none" /><path
                 d="m 21570,15353 -1452,0 0,-1439 2904,0 0,1439 -1452,0 z"
                 id="path282"
                 inkscape:connector-curvature="0"
                 style="fill:none;stroke:#000000;stroke-width:28.22200012" /><text
                 class="TextShape"
                 id="text284"><tspan
                   class="TextParagraph"
                   font-size="423px"
                   font-weight="400"
                   id="tspan286"
                   style="font-size:423px;font-weight:400;font-family:'Liberation Sans, sans-serif'"><tspan
                     class="TextPosition"
                     x="20315"
                     y="14780"
                     id="tspan288"><tspan
                       id="tspan290"
                       style="fill:#000000;stroke:none">HALL Sensor</tspan></tspan></tspan></text>
</g></g><g
             class="com.sun.star.drawing.ConnectorShape"
             id="g292"><g
               id="id19"><path
                 d="m 18258,6707 1858,1"
                 id="path295"
                 inkscape:connector-curvature="0"
                 style="fill:none;stroke:#000000;stroke-width:28.22200012" /></g></g><g
             class="com.sun.star.drawing.ConnectorShape"
             id="g297"><g
               id="id20"><path
                 d="m 18258,10681 1859,1"
                 id="path300"
                 inkscape:connector-curvature="0"
                 style="fill:none;stroke:#000000;stroke-width:28.22200012" /></g></g><g
             class="com.sun.star.drawing.ConnectorShape"
             id="g302"><g
               id="id21"><path
                 d="m 18258,14634 1860,0"
                 id="path305"
                 inkscape:connector-curvature="0"
                 style="fill:none;stroke:#000000;stroke-width:28.22200012" /></g></g></g></g></g></g></svg>
